<svg xmlns="http://www.w3.org/2000/svg" width="28.997" height="28.156" viewBox="0 0 28.997 28.156"><defs><style>.a{fill:#fff;}</style></defs><path class="a" d="M133.172,136.864l-.449-.578-.017-.018c-.147-.154-.563-.578-1.244-1.162-.814-.7-2.267-1.734-2.382-1.811l-2.033-1.228a2.346,2.346,0,0,0-1.035-.226,2.508,2.508,0,0,0-.824.134c-.879.307-1.7,1.693-1.928,2.111-.105.193-.221.425-.32.628l-.032.064c-.124.247-.263.524-.409.794a.988.988,0,0,1-.769.525.549.549,0,0,1-.276-.073,22.614,22.614,0,0,1-4.62-3.38,15.2,15.2,0,0,1-3.567-4.585c-.037-.095-.033-.523.209-.642.334-.166.606-.275.845-.373l.056-.024a6.713,6.713,0,0,0,1.046-.5c.161-.1.247-.151.32-.193l.037-.022a6.789,6.789,0,0,0,.647-.4c.017-.012.087-.07.161-.133l.248-.224a2.143,2.143,0,0,0,.542-2.34l-.112-.322a21.269,21.269,0,0,0-1.073-2.1c-.32-.55-.806-1.282-1.236-1.863a6.727,6.727,0,0,0-2.241-2.069c-.011-.006-.29-.154-.462-.233a2.758,2.758,0,0,0-2.2.021,7.739,7.739,0,0,0-2.393,1.514l-.151.129c-2.046,1.708-3.154,3.937-2.893,5.819.392,2.846,3.68,8.657,7.948,12.769s10.273,7.269,13.207,7.642a5.275,5.275,0,0,0,.679.043,7.464,7.464,0,0,0,4.975-2.419,8.555,8.555,0,0,0,1.812-2.407,2.961,2.961,0,0,0-.066-2.866m-21.882-7.936a17.124,17.124,0,0,0,4.045,5.27,24.664,24.664,0,0,0,5.045,3.7,2.7,2.7,0,0,0,1.351.366,3.18,3.18,0,0,0,2.658-1.646c.171-.311.321-.614.487-.947l.068-.141c.076-.15.146-.289.209-.408a4.742,4.742,0,0,1,.809-1.118,1.017,1.017,0,0,1,.127,0l1.805,1.091.03.021c.438.313,1.522,1.1,2.13,1.623.53.455.872.793.984.9a.311.311,0,0,0,.045.042l.331.424a1.446,1.446,0,0,1-.134.716,6.4,6.4,0,0,1-1.327,1.734c-1.378,1.29-2.417,1.838-3.475,1.838a3.241,3.241,0,0,1-.43-.029c-2.242-.284-7.886-3.106-11.984-7.055s-7.008-9.357-7.306-11.509c-.157-1.135.682-2.652,2.137-3.867l.156-.129a5.7,5.7,0,0,1,1.817-1.172.877.877,0,0,1,.328-.084.5.5,0,0,1,.188.038c.076.036.2.1.283.145l.068.035a5.012,5.012,0,0,1,1.488,1.433,19.03,19.03,0,0,1,1.1,1.659c.3.527.607,1.11.9,1.733l.029.059.1.286c.007.017.009.026.011.026s-.016.017-.035.036l-.063.062c-.027.025-.056.053-.072.071-.274.181-.368.232-.465.289s-.211.115-.44.26a4.75,4.75,0,0,1-.731.34c-.3.121-.629.256-1.034.456a2.75,2.75,0,0,0-1.228,3.446" transform="translate(-104.579 -116.399)"/></svg>