<svg xmlns="http://www.w3.org/2000/svg" width="24.078" height="29.646" viewBox="0 0 24.078 29.646"><defs><style>.a{fill:#fff;}</style></defs><path class="a" d="M202.073,109.471a12.039,12.039,0,0,0-23.133,4.686c0,2.764,1.939,6.54,5.765,11.222a72.679,72.679,0,0,0,5.637,6.119.926.926,0,0,0,1.273,0,72.6,72.6,0,0,0,5.637-6.119c3.826-4.682,5.766-8.458,5.766-11.222A11.966,11.966,0,0,0,202.073,109.471Zm-2.518,9.418a38.756,38.756,0,0,1-3.725,5.3c-1.928,2.361-3.878,4.368-4.851,5.338-.971-.967-2.913-2.965-4.839-5.323a38.529,38.529,0,0,1-3.73-5.311,10.383,10.383,0,0,1-1.617-4.739,10.187,10.187,0,1,1,20.374,0,10.37,10.37,0,0,1-1.613,4.732Zm0,0" transform="translate(-178.94 -102.107)"/><path class="a" d="M368.467,255.872a5.371,5.371,0,1,0,5.371,5.371A5.378,5.378,0,0,0,368.467,255.872Zm0,8.89a3.519,3.519,0,1,1,3.519-3.519A3.519,3.519,0,0,1,368.467,264.762Zm0,0" transform="translate(-356.428 -250.305)"/></svg>