<svg xmlns="http://www.w3.org/2000/svg" width="31.353" height="23.514" viewBox="0 0 31.353 23.514"><defs><style>.a{fill:#fff;}</style></defs><path class="a" d="M113.022,193.568H88.469a1.554,1.554,0,0,0-.388.049l11.893,11.892a.784.784,0,0,0,1.108,0Zm1.7.521-9.578,9.578,9.661,9.66a1.562,1.562,0,0,0,.318-.948V195.135a1.565,1.565,0,0,0-.4-1.046ZM113.2,213.947l-9.171-9.171-1.842,1.842a2.351,2.351,0,0,1-3.326,0l-1.841-1.842-9.08,9.081a1.577,1.577,0,0,0,.526.09H113.2Zm-26.277-1.29,8.99-8.99-8.956-8.954a1.57,1.57,0,0,0-.058.423v17.244A1.547,1.547,0,0,0,86.925,212.657ZM88.469,192h25.082a3.135,3.135,0,0,1,3.135,3.135v17.244a3.135,3.135,0,0,1-3.135,3.135H88.469a3.135,3.135,0,0,1-3.135-3.135V195.135A3.135,3.135,0,0,1,88.469,192Z" transform="translate(-85.333 -192)"/></svg>