<svg xmlns="http://www.w3.org/2000/svg" width="14.775" height="14.326" viewBox="0 0 14.775 14.326"><defs><style>.a{fill:#333;stroke:#333;stroke-width:0.3px;}</style></defs><path class="a" d="M68.486,71.8a.116.116,0,0,0-.023.039l-.721,2.644a.45.45,0,0,0,.55.551l2.625-.716s.006,0,.009,0a.114.114,0,0,0,.082-.034l7.02-7.019a1.123,1.123,0,0,0,.323-.8,1.372,1.372,0,0,0-.409-.961l-.663-.664a1.375,1.375,0,0,0-.961-.409,1.125,1.125,0,0,0-.8.323L68.5,71.776c-.007.007-.005.017-.01.024m8.855-5.218-.7.7-1.13-1.148.687-.687a.327.327,0,0,1,.444.032l.663.664a.361.361,0,0,1,.109.252.267.267,0,0,1-.076.191m-7.607,5.328L74.8,66.846l1.131,1.149L70.875,73.05l-1.14-1.139Zm-.923,2.054.366-1.344.976.976-1.342.367Zm8.59-4.6a.5.5,0,0,0-.5.485v6.568a.612.612,0,0,1-.622.609h-10.8a.592.592,0,0,1-.6-.609V65.609a.586.586,0,0,1,.6-.6h7.41a.5.5,0,0,0,.484-.5.5.5,0,0,0-.484-.5H65.408a1.542,1.542,0,0,0-1.532,1.529V76.491a1.552,1.552,0,0,0,1.532,1.541H76.352a1.567,1.567,0,0,0,1.55-1.541V69.846a.5.5,0,0,0-.5-.482" transform="translate(-63.726 -63.856)"/></svg>