<svg xmlns="http://www.w3.org/2000/svg" width="13.6" height="13.6" viewBox="0 0 13.6 13.6"><defs><style>.a{fill:#333;}</style></defs><g transform="translate(-805.055 -278.907)"><path class="a" d="M12.92,6.12a.642.642,0,0,1-.68-.68V2.04a.642.642,0,0,0-.68-.68H2.04a.642.642,0,0,0-.68.68v9.52a.642.642,0,0,0,.68.68h3.4a.68.68,0,1,1,0,1.36H1.36A1.364,1.364,0,0,1,0,12.24V1.36A1.364,1.364,0,0,1,1.36,0H12.24A1.364,1.364,0,0,1,13.6,1.36V5.44A.642.642,0,0,1,12.92,6.12Z" transform="translate(805.055 278.907)"/><path class="a" d="M615.08,616.44h4.08a.68.68,0,1,1,0,1.36h-4.08a.68.68,0,1,1,0-1.36Zm2.04-2.04a.642.642,0,0,1,.68.68v4.08a.68.68,0,1,1-1.36,0v-4.08A.642.642,0,0,1,617.12,614.4Z" transform="translate(198.815 -327.333)"/></g></svg>