<svg xmlns="http://www.w3.org/2000/svg" width="14.936" height="14.968" viewBox="0 0 14.936 14.968"><defs><style>.a{fill:#26c1f7;}</style></defs><path class="a" d="M70.768,81.378a7.484,7.484,0,1,1,7.468-7.484A7.5,7.5,0,0,1,70.768,81.378Zm2.41-1.743a6.3,6.3,0,0,0,3.316-3.324,6.207,6.207,0,0,0,0-4.834,6.3,6.3,0,0,0-3.316-3.324,6.163,6.163,0,0,0-4.819,0,6.3,6.3,0,0,0-3.317,3.324,6.207,6.207,0,0,0,0,4.834,6.3,6.3,0,0,0,3.317,3.324,6.164,6.164,0,0,0,4.819,0Z" transform="translate(-63.3 -66.41)"/><path class="a" d="M287.807,303.234m.443-.443,5.831-5.831a.553.553,0,0,1,.885,0h0a.553.553,0,0,1,0,.885l-5.831,5.831a.553.553,0,0,1-.885,0h0A.553.553,0,0,1,288.25,302.791Z" transform="translate(-284.059 -292.893)"/><path class="a" d="M304.292,307.4m-.443-.443-5.831-5.831a.553.553,0,0,1,0-.885h0a.553.553,0,0,1,.885,0l5.831,5.831a.553.553,0,0,1,0,.885h0A.553.553,0,0,1,303.849,306.953Z" transform="translate(-293.881 -296.115)"/></svg>